<?xml version='1.0' encoding='utf-8'?>
<!DOCTYPE svg PUBLIC '-//W3C//DTD SVG 1.1//EN' 'http://www.w3.org/Graphics/SVG/1.1/DTD/svg11.dtd'>
<!-- Uploaded to: SVG Repo, www.svgrepo.com, Generator: SVG Repo Mixer Tools -->
<svg fill="#000000" height="800px" width="800px" version="1.1" xmlns="http://www.w3.org/2000/svg" viewBox="0 0 512 512" xmlns:xlink="http://www.w3.org/1999/xlink" enable-background="new 0 0 512 512">
  <g>
    <g>
      <path d="m390.2,221.8l-106.2-88.1 101-83.9c8.7-7.2 9.9-20.1 2.7-28.8-7.2-8.7-20.1-9.8-28.8-2.7l-106.9,88.8-110.1-91.4c-8.7-7.2-21.5-6-28.8,2.7-7.2,8.7-6,21.5 2.7,28.8l104.3,86.6-111.2,92.2c-8.7,7.2-10.4,20.6-2.7,28.8 12.2,12.8 24.9,5.8 28.7,2.7l96.7-80.3v118h-59.8c-11.3,0-20.4,9.1-20.4,20.4v144.6h-12.8c-11.3,0-20.4,9.1-20.4,20.4s9.1,20.4 20.4,20.4h226.9c11.3,0 20.4-9.1 20.4-20.4s-9.1-20.4-20.4-20.4h-12.8v-144.6c0-11.3-9.1-20.4-20.4-20.4h-59.8v-118l91.6,76c3.8,3.2 16.3,9.8 28.8-2.7 7.9-7.9 5.9-21.5-2.7-28.7zm-78.3,238.4h-119.7v-124.2h119.7v124.2z"/>
    </g>
  </g>
</svg>